<?xml version="1.0" encoding="utf-8"?>
<!-- Generator: Adobe Illustrator 18.1.0, SVG Export Plug-In . SVG Version: 6.00 Build 0)  -->
<svg version="1.1" id="Layer_1" xmlns="http://www.w3.org/2000/svg" xmlns:xlink="http://www.w3.org/1999/xlink" x="0px" y="0px"
	 viewBox="0 0 2000 2000" enable-background="new 0 0 2000 2000" xml:space="preserve">
<g>
	<path fill="#F15B2B" d="M415,1000.1c33.8-4.9,68.6-7.5,103.2-7.5c139.8,0,269.5,40.3,359.9,106.7c-22.4-56.2-22.1-103.1-9-144.3
		c14.6-45.8,44.7-84.7,76.4-122c20.3-23.8,41.3-47,59.2-70.9c-24,22.1-52.4,42.3-81.4,62.6L401.6,628.5l-0.2-0.1L366,952.3
		c-1.7,13.3,3.1,26.6,12.6,35.9c6.6,6.5,15.2,10.4,24,11.7C406.8,1000.5,410.8,1000.7,415,1000.1z"/>
	<path fill="#F15B2B" d="M1031.4,858c-54.5,68.9-160.4,121.2-150,243.6c10.2,7.6,19.7,15.7,28.8,24c-0.3-3.2-0.6-6.5-0.7-9.8
		c-4.8-126,167.2-174,206.4-268.4c118.2,172.4-208.7,181.3-123.9,364.8c-5.2-0.2-10-2.4-14.6-3.3c7.5,13.9,22,21.1,37.8,21.1h13.2
		c16,0,30.6-7.4,38-21.4c0.7-1.3,1.5-1.8,2.2-3c-13.4,0.6-27.6-1.4-42.2-7.6c-29.1-122,126.9-115.1,144.5-213.1
		c13.9,32.9,15.3,70.7,7.5,105.4c89.7-61,213.7-97.7,347-97.7c34.7,0,69.4,2.6,103.4,7.5c1.9,0.3,6.3,0.5,6.4,0.5
		c2.2,0,4.2-0.4,6.2-0.5c21.1-2.8,38.5-19.5,36.9-42.5c-0.2-3.7-36-332.6-36-332.6L1031.4,858z"/>
	<path fill="#F15B2B" d="M325.2,1027H193.1l-28,263c-1.3,12.1,2.4,20.9,10.7,30c8.1,9.1,19.8,11,32,11h102.8
		c12.1,0,23.8-3.6,32-12.7c8.1-9.1,12-16.9,10.7-29L325.2,1027z"/>
	<path fill="#1B3750" d="M1628.9,1041.4c-34-5-68.7-7.6-103.4-7.6c-145.7,0-280.3,43.8-371,115.3c-18.7,14.8-35.5,30.7-50.2,47.7
		c-14.9,17.2-27.8,35.4-37.9,54.6c-1.4,2.7-3.3,4.9-5.2,7.2c122.3,4.3,225.9,38.9,135.7,111.8c-54.2-71.2-285.6-81.6-337.2,0
		c-113.4-62.2-4.8-102.1,123.6-110.6c-2.3-2.6-4.5-5.4-6.1-8.5c-68.4-130-252.9-217.4-459.1-217.4c-34.7,0-69.4,2.5-103.2,7.6
		c-2.8,0.4-5.4,0.3-8.1,0.1c10,89.9,27.2,179.6,54.7,262.7c79.8,239.9,378.4,449.4,505.6,529.8c0.3-158-35-301.7-69.4-429.3
		c16.9-16.6,45-28.1,76.4-33.9c64-11.9,142.3-0.3,171.4,40.8c-39.6,118.6-71.6,266.3-69.9,423.4c0.4,39.6,2.9,79.8,8,120.3
		c-2.9-0.8-6.1-1.4-9.2-2.1c0.5,1.4,1,2.7,1.5,4.1c2.7,0.9,5.9,1.6,8.4,2.6c1.4-16.1,10.9-73.8,25.1-146.7
		c139.7-92.1,399.6-287.6,473.3-509c27.6-83,44.7-172.8,54.7-262.5c-0.6,0.1-1.3,0.2-2,0.2
		C1635.3,1041.8,1630.9,1041.7,1628.9,1041.4z"/>
	<path fill="#1B3750" d="M1805.5,381.4L1038.3,92.6c-9.8-3.7-20.6-3.7-30.3,0L241.2,382.2c-16.6,6.2-25.2,22.3-25.2,40.1V943h85
		V486.9l106.5,38.9l599,224.8c1.4,0.5,3.7,0.8,5.1,1.2c0.9,0.2,2.1,0.6,3,0.7c7.7,1.5,16,0.9,23.6-1.9l3.2-1.2l15.6-5.9l576.6-217.1
		l171.8-64.6c16.9-6.3,28-22.4,28-40.2C1833.4,403.6,1822.3,387.7,1805.5,381.4z"/>
</g>
</svg>
